/* XPM */
static char *haskell[] = {
/* columns rows colors chars-per-pixel */
"40 28 38 1 ",
"  c #636363",
". c #666666",
"X c #6B6B6B",
"o c #6D6D6D",
"O c #747474",
"+ c #767676",
"@ c #797979",
"# c #7F7F7F",
"$ c #818181",
"% c #878787",
"& c #8A8A8A",
"* c #8F8F8F",
"= c #919191",
"- c #979797",
"; c #999999",
": c #9F9F9F",
"> c #A1A1A1",
", c #A5A5A5",
"< c #A7A7A7",
"1 c #AFAFAF",
"2 c #B0B0B0",
"3 c #B7B7B7",
"4 c #B8B8B8",
"5 c #BDBDBD",
"6 c #C3C3C3",
"7 c #C7C7C7",
"8 c #C8C8C8",
"9 c #CCCCCC",
"0 c #D1D1D1",
"q c #DDDDDD",
"w c #E3E3E3",
"e c #E4E4E4",
"r c #EBEBEB",
"t c #ECECEC",
"y c #F2F2F2",
"u c #F6F6F6",
"i c #FBFBFB",
"p c #FFFFFF",
/* pixels */
";.....X3pw:;;;;;1ipppppppppppppppppppppp",
"e# ....@wp7-;;;;;9pppppppppppppppppppppp",
"p8X.... -iy1;;;;;>eppppppppppppppppppppp",
"pi>......5pw:;;;;;2ipppppppppppppppppppp",
"ppr#.....Owp7;;;;;;9pppppppppppppppppppp",
"ppp8X.....-uu1-;;;;>eppppppppppppppppppp",
"pppp>......5pw:;;;;-2ipppppppppppppppppp",
"ppppr$ ....Oqp7;;;;;;9ppiiuuiuuiuiuuiuiu",
"ppppp8o.....=pu1;;;;;>ep9&&&%&%&&&%&%&%&",
"pppppp,......4pw:;;;;;2uu* . .   . .  . ",
"ppppppt$ ....Oqp8;;;;;;8pqO.............",
"ppppppp9o.....=ui2-;;;;:wp4..  .  . .  .",
"pppppppp,......4pe>;;;;;2uu>%%&%%%&%&%%&",
"ppppppppt$.....Oqp8;;;;;;7piuiiuiuuiuiuu",
"ppppppppt$.....Oqp8;;;;;;:wppiuiuiiuiuui",
"pppppppp,......4pe>;;;;;;-1up2%%&%%&%&&%",
"ppppppp8X.....=uu2;;;;;;;;;7pqO.  .  . .",
"ppppppt$ ....Oqp8;;;;;;;;;;:wp5.........",
"pppppp,......3pw>;;;;;;;;;;;1yi- ..     ",
"ppppp8X.....=iu2;;;;;>4;;;;;-7pw*%&%&&&&",
"ppppr$.....Oqp8;;;;;;9u3-;;;;:qpiuuiiuui",
"pppp> ....o4pw:;;;;;2upr>;;;;-1ypppppppp",
"ppp8X.....-uu1;;;;;>eppp0;;;;;;6pppppppp",
"ppr#.....Owp7;;;;;;8ppppi3-;;;;:qppppppp",
"pi> .....5pq:;;;;;3upppppe,;;;;;,upppppp",
"p8X.....-iu1-;;;;>eppppppp0;;;;;-6pppppp",
"e#.... @wp7;;;;;;9ppppppppi3;;;;;:qppppp",
";......4pw:;;;;;1ipppppppppe>;;;;-1upppp"
};
